<svg width="384" height="307" xmlns="http://www.w3.org/2000/svg" xmlns:xlink="http://www.w3.org/1999/xlink" overflow="hidden"><defs><clipPath id="clip0"><path d="M349 198 733 198 733 505 349 505Z" fill-rule="evenodd" clip-rule="evenodd"/></clipPath></defs><g clip-path="url(#clip0)" transform="translate(-349 -198)"><path d="M477 264C477 228.101 506.102 199 542 199 577.898 199 607 228.101 607 264 607 299.898 577.898 329 542 329 506.102 329 477 299.898 477 264Z" stroke="#FFFFFF" stroke-width="2" stroke-miterlimit="8" fill="none" fill-rule="evenodd"/><path d="M419.266 385.502 463.335 341.434 507.403 385.502 463.335 429.571Z" stroke="#FFFFFF" stroke-width="2" stroke-miterlimit="8" fill="none" fill-rule="evenodd"/><path d="M620 504 675 409 730 504Z" stroke="#FFFFFF" stroke-width="2" stroke-miterlimit="8" fill="none" fill-rule="evenodd"/><path d="M350.978 429.571 395.047 385.502 439.115 429.571 395.047 473.639Z" stroke="#FFFFFF" stroke-width="2" stroke-miterlimit="8" fill="none" fill-rule="evenodd"/><path d="M477.363 435.932 521.431 391.864 565.499 435.932 521.431 480Z" stroke="#FFFFFF" stroke-width="2" stroke-miterlimit="8" fill="none" fill-rule="evenodd"/><path d="M675 367 620 461 565 367Z" stroke="#FFFFFF" stroke-width="2" stroke-miterlimit="8" fill="none" fill-rule="evenodd"/></g></svg>