<svg width="423" height="423" xmlns="http://www.w3.org/2000/svg" xmlns:xlink="http://www.w3.org/1999/xlink" overflow="hidden"><defs><clipPath id="clip0"><path d="M591 30 1014 30 1014 453 591 453Z" fill-rule="evenodd" clip-rule="evenodd"/></clipPath><clipPath id="clip1"><path d="M651 90 954 90 954 393 651 393Z" fill-rule="evenodd" clip-rule="evenodd"/></clipPath><clipPath id="clip2"><path d="M651 90 954 90 954 393 651 393Z" fill-rule="evenodd" clip-rule="evenodd"/></clipPath><clipPath id="clip3"><path d="M651 90 954 90 954 393 651 393Z" fill-rule="evenodd" clip-rule="evenodd"/></clipPath></defs><g clip-path="url(#clip0)" transform="translate(-591 -30)"><path d="M592 241.5C592 125.244 686.244 31 802.5 31 918.756 31 1013 125.244 1013 241.5 1013 357.756 918.756 452 802.5 452 686.244 452 592 357.756 592 241.5Z" fill="#000000" fill-rule="evenodd" fill-opacity="0.74902"/><g clip-path="url(#clip1)"><g clip-path="url(#clip2)"><g clip-path="url(#clip3)"><path d="M802.221 378.917 669.196 324.458 669.196 157.209 802.221 211.668Z" stroke="#FFFFFF" stroke-width="14.7805" stroke-miterlimit="8" fill="#FFFFFF" fill-rule="evenodd"/><path d="M802.221 378.917 935.245 324.459 935.245 157.209 802.221 211.666Z" stroke="#FFFFFF" stroke-width="14.7805" stroke-miterlimit="8" fill="none" fill-rule="evenodd"/><path d="M669.196 157.209 802.221 98.0873 935.245 157.209 802.221 216.331Z" stroke="#FFFFFF" stroke-width="14.7805" stroke-miterlimit="8" fill="none" fill-rule="evenodd"/></g></g></g></g></svg>