<svg width="439" height="273" xmlns="http://www.w3.org/2000/svg" xmlns:xlink="http://www.w3.org/1999/xlink" overflow="hidden"><defs><clipPath id="clip0"><path d="M787 259 1226 259 1226 532 787 532Z" fill-rule="evenodd" clip-rule="evenodd"/></clipPath></defs><g clip-path="url(#clip0)" transform="translate(-787 -259)"><path d="M798 315C798 284.624 822.624 260 853 260 883.376 260 908 284.624 908 315 908 345.376 883.376 370 853 370 822.624 370 798 345.376 798 315Z" stroke="#FFFFFF" stroke-width="2" stroke-miterlimit="8" fill="none" fill-rule="evenodd"/><path d="M789 531 853 421 917 531Z" stroke="#FFFFFF" stroke-width="2" stroke-miterlimit="8" fill="none" fill-rule="evenodd"/><path d="M1-2.53238e-06 1.00009 34.7911-0.999912 34.7911-1 2.53238e-06ZM4.00008 33.4577 0.000104987 41.4577-3.99991 33.4578Z" fill="#FFFFFF" transform="matrix(-1 -8.74228e-08 -8.74228e-08 1 853 375)"/><path d="M951 315C951 284.624 975.624 260 1006 260 1036.38 260 1061 284.624 1061 315 1061 345.376 1036.38 370 1006 370 975.624 370 951 345.376 951 315Z" stroke="#FFFFFF" stroke-width="2" stroke-miterlimit="8" fill="none" fill-rule="evenodd"/><path d="M942 531 1006 421 1070 531Z" stroke="#FFFFFF" stroke-width="2" stroke-miterlimit="8" fill="none" fill-rule="evenodd"/><path d="M1-2.53238e-06 1.00009 34.7911-0.999912 34.7911-1 2.53238e-06ZM4.00008 33.4577 0.000104987 41.4577-3.99991 33.4578Z" fill="#FFFFFF" transform="matrix(-1 -8.74228e-08 -8.74228e-08 1 1006 375)"/><path d="M1105 315C1105 284.624 1129.62 260 1160 260 1190.38 260 1215 284.624 1215 315 1215 345.376 1190.38 370 1160 370 1129.62 370 1105 345.376 1105 315Z" stroke="#FFFFFF" stroke-width="2" stroke-miterlimit="8" fill="none" fill-rule="evenodd"/><path d="M1096 531 1160 421 1224 531Z" stroke="#FFFFFF" stroke-width="2" stroke-miterlimit="8" fill="none" fill-rule="evenodd"/><path d="M1-2.53238e-06 1.00009 34.7911-0.999912 34.7911-1 2.53238e-06ZM4.00008 33.4577 0.000104987 41.4577-3.99991 33.4578Z" fill="#FFFFFF" transform="matrix(-1 -8.74228e-08 -8.74228e-08 1 1160 375)"/></g></svg>