<svg width="456" height="397" xmlns="http://www.w3.org/2000/svg" xmlns:xlink="http://www.w3.org/1999/xlink" overflow="hidden"><defs><clipPath id="clip0"><path d="M277 287 733 287 733 684 277 684Z" fill-rule="evenodd" clip-rule="evenodd"/></clipPath></defs><g clip-path="url(#clip0)" transform="translate(-277 -287)"><path d="M445 627C445 596.624 469.624 572 500 572 530.376 572 555 596.624 555 627 555 657.376 530.376 682 500 682 469.624 682 445 657.376 445 627Z" stroke="#FFFFFF" stroke-width="2" stroke-miterlimit="8" fill="none" fill-rule="evenodd"/><path d="M391.219 367.455 435.287 323.387 479.356 367.455 435.287 411.524Z" stroke="#FFFFFF" stroke-width="2" stroke-miterlimit="8" fill="none" fill-rule="evenodd"/><path d="M313.562 429.571 357.63 385.502 401.698 429.571 357.63 473.639Z" stroke="#FFFFFF" stroke-width="2" stroke-miterlimit="8" fill="none" fill-rule="evenodd"/><path d="M466.884 420.514 510.952 376.446 555.02 420.514 510.952 464.583Z" stroke="#FFFFFF" stroke-width="2" stroke-miterlimit="8" fill="none" fill-rule="evenodd"/><path d="M535.896 367.455 579.965 323.387 624.033 367.455 579.965 411.524Z" stroke="#FFFFFF" stroke-width="2" stroke-miterlimit="8" fill="none" fill-rule="evenodd"/><path d="M608.787 420.514 652.855 376.446 696.923 420.514 652.855 464.583Z" stroke="#FFFFFF" stroke-width="2" stroke-miterlimit="8" fill="none" fill-rule="evenodd"/><path d="M435.287 289.386 499.649 353.747 510.952 342.445 518.929 350.421 579.965 289.386 642.939 352.36 652.855 342.444 730.925 420.514 652.855 498.584 589.88 435.61 579.965 445.525 571.988 437.548 510.952 498.584 446.59 434.223 435.287 445.525 427.516 437.754 357.63 507.641 279.56 429.571 357.63 351.501 365.401 359.272Z" stroke="#FFFFFF" stroke-width="2" stroke-miterlimit="8" stroke-dasharray="8 6" fill="none" fill-rule="evenodd"/><path d="M499.001 571.79 499.502 560.57 500.071 555.394 500.766 550.713 501.658 546.763 502.634 543.641 503.789 541.403 504.996 540.573 505.996 539.886 505.674 540.251 506.674 538.314 506.608 538.474 507.546 535.474 507.525 535.552 508.4 531.677 508.386 531.75 509.073 527.125 509.067 527.175 509.567 522.05 509.564 522.103 509.766 517.575 511.764 517.664 511.56 522.218 511.055 527.394 510.359 532.081 509.467 536.032 508.491 539.154 507.336 541.392 506.129 542.221 505.129 542.909 505.451 542.543 504.451 544.481 504.517 544.321 503.579 547.321 503.6 547.243 502.725 551.118 502.739 551.044 502.052 555.669 502.057 555.631 501.494 560.756 501.499 560.692 500.999 571.88ZM506.709 518.773 511.063 510.96 514.701 519.13Z" fill="#FFFFFF"/></g></svg>